<svg width="21" height="20" viewBox="0 0 21 20" fill="none" xmlns="http://www.w3.org/2000/svg">
<path d="M15.9766 15.75C16.5291 15.75 17.059 15.9695 17.4497 16.3602C17.8404 16.7509 18.0599 17.2808 18.0599 17.8333C18.0599 18.3859 17.8404 18.9158 17.4497 19.3065C17.059 19.6972 16.5291 19.9167 15.9766 19.9167C15.424 19.9167 14.8941 19.6972 14.5034 19.3065C14.1127 18.9158 13.8932 18.3859 13.8932 17.8333C13.8932 17.2808 14.1127 16.7509 14.5034 16.3602C14.8941 15.9695 15.424 15.75 15.9766 15.75ZM15.9766 16.7917C15.7003 16.7917 15.4353 16.9014 15.24 17.0968C15.0446 17.2921 14.9349 17.5571 14.9349 17.8333C14.9349 18.1096 15.0446 18.3746 15.24 18.5699C15.4353 18.7653 15.7003 18.875 15.9766 18.875C16.2528 18.875 16.5178 18.7653 16.7131 18.5699C16.9085 18.3746 17.0182 18.1096 17.0182 17.8333C17.0182 17.5571 16.9085 17.2921 16.7131 17.0968C16.5178 16.9014 16.2528 16.7917 15.9766 16.7917ZM6.60156 15.75C7.1541 15.75 7.684 15.9695 8.0747 16.3602C8.4654 16.7509 8.68489 17.2808 8.68489 17.8333C8.68489 18.3859 8.4654 18.9158 8.0747 19.3065C7.684 19.6972 7.1541 19.9167 6.60156 19.9167C6.04903 19.9167 5.51912 19.6972 5.12842 19.3065C4.73772 18.9158 4.51823 18.3859 4.51823 17.8333C4.51823 17.2808 4.73772 16.7509 5.12842 16.3602C5.51912 15.9695 6.04903 15.75 6.60156 15.75ZM6.60156 16.7917C6.32529 16.7917 6.06034 16.9014 5.86499 17.0968C5.66964 17.2921 5.5599 17.5571 5.5599 17.8333C5.5599 18.1096 5.66964 18.3746 5.86499 18.5699C6.06034 18.7653 6.32529 18.875 6.60156 18.875C6.87783 18.875 7.14278 18.7653 7.33813 18.5699C7.53348 18.3746 7.64323 18.1096 7.64323 17.8333C7.64323 17.5571 7.53348 17.2921 7.33813 17.0968C7.14278 16.9014 6.87783 16.7917 6.60156 16.7917ZM18.0599 3.25H3.76094L6.41406 9.5H14.9349C15.0969 9.50025 15.2566 9.46249 15.4014 9.38976C15.5461 9.31704 15.6718 9.21137 15.7682 9.08125L18.8932 4.91458H18.8943C19.0098 4.75975 19.08 4.57583 19.097 4.3834C19.114 4.19097 19.0772 3.99759 18.9906 3.82489C18.904 3.65218 18.7711 3.50696 18.6068 3.40543C18.4424 3.30391 18.2531 3.2501 18.0599 3.25ZM14.9349 10.5417H6.46198L5.66406 12.1667L5.5599 12.625C5.5599 12.9013 5.66964 13.1662 5.86499 13.3616C6.06034 13.5569 6.32529 13.6667 6.60156 13.6667H18.0599V14.7083H6.60156C6.23882 14.7085 5.88231 14.614 5.56733 14.4341C5.25234 14.2542 4.98978 13.9951 4.80563 13.6826C4.62148 13.3701 4.52213 13.0149 4.51739 12.6522C4.51266 12.2895 4.60271 11.9318 4.77865 11.6146L5.52865 10.0792L1.74531 1.16667H0.351562V0.125H2.4349L3.31927 2.20833H18.0599C18.4535 2.20837 18.8391 2.31992 19.1719 2.53006C19.5047 2.74019 19.7712 3.04032 19.9405 3.39568C20.1098 3.75104 20.175 4.14708 20.1284 4.53794C20.0819 4.9288 19.9256 5.29848 19.6776 5.60417L16.6422 9.65208C16.4503 9.92688 16.1948 10.1513 15.8976 10.3061C15.6003 10.461 15.2701 10.5418 14.9349 10.5417Z" fill="#5582AC"/>
</svg>
