<svg width="50" height="50" viewBox="0 0 50 50" fill="none" xmlns="http://www.w3.org/2000/svg">
<g clip-path="url(#clip0)">
<path d="M25 -0.0529785C11.1859 -0.0529785 -0.0546875 11.1845 -0.0546875 25.0001C-0.0546875 38.8158 11.1859 50.0533 25 50.0533C38.8141 50.0533 50.0547 38.8158 50.0547 25.0001C50.0547 11.1845 38.8141 -0.0529785 25 -0.0529785ZM25 48.3845C12.1063 48.3845 1.61719 37.8939 1.61719 25.0001C1.61719 12.1064 12.1063 1.61577 25 1.61577C37.8938 1.61577 48.3828 12.1064 48.3828 25.0001C48.3828 37.8939 37.8938 48.3845 25 48.3845Z" fill="#91A6BF"/>
<path d="M30.469 10.9376H26.3003C20.9909 10.8844 20.3128 14.1704 20.3128 17.7266V20.3126H17.969C17.8631 20.2984 17.7553 20.3089 17.6541 20.3431C17.5528 20.3774 17.4609 20.4345 17.3853 20.5101C17.3097 20.5857 17.2526 20.6776 17.2183 20.7789C17.1841 20.8801 17.1736 20.9879 17.1878 21.0938V25.7813C17.1736 25.8872 17.1841 25.995 17.2183 26.0962C17.2526 26.1975 17.3097 26.2895 17.3853 26.365C17.4609 26.4406 17.5528 26.4977 17.6541 26.532C17.7553 26.5663 17.8631 26.5767 17.969 26.5626H20.3128V38.2813C20.2997 38.3874 20.3112 38.4951 20.3461 38.5962C20.3811 38.6972 20.4387 38.7889 20.5145 38.8643C20.5903 38.9397 20.6824 38.9967 20.7836 39.0311C20.8849 39.0655 20.9927 39.0762 21.0987 39.0626H25.8721C26.3331 39.1157 26.7065 38.7422 26.5596 38.2813L26.5628 26.5626H30.469C30.5749 26.5767 30.6827 26.5663 30.784 26.532C30.8852 26.4977 30.9772 26.4406 31.0527 26.365C31.1283 26.2895 31.1854 26.1975 31.2197 26.0962C31.254 25.995 31.2644 25.8872 31.2503 25.7813V21.0938C31.2644 20.9879 31.254 20.8801 31.2197 20.7789C31.1854 20.6776 31.1283 20.5857 31.0527 20.5101C30.9772 20.4345 30.8852 20.3774 30.784 20.3431C30.6827 20.3089 30.5749 20.2984 30.469 20.3126H26.5581L26.5628 17.9688C26.7143 16.9704 26.7143 17.1329 27.6409 17.1876H30.4362C30.6534 17.1391 30.8846 17.1657 31.0471 17.0079C31.2096 16.8501 31.3034 16.6344 31.2487 16.4063V11.7188C31.2631 11.613 31.2529 11.5052 31.2189 11.404C31.1848 11.3027 31.1278 11.2107 31.0524 11.1351C30.9769 11.0595 30.885 11.0023 30.7838 10.968C30.6826 10.9338 30.5749 10.9234 30.469 10.9376ZM29.6331 15.5376L27.6737 15.4626C25.2471 15.4626 25.044 16.7797 25.044 18.1282L25.0378 21.0907C25.0376 21.2004 25.059 21.3091 25.1008 21.4105C25.1427 21.5119 25.2041 21.604 25.2816 21.6817C25.3591 21.7593 25.4511 21.8209 25.5525 21.863C25.6538 21.905 25.7624 21.9266 25.8721 21.9266H29.6878V24.9454H25.8753C25.6538 24.9454 25.4414 25.0332 25.2847 25.1897C25.128 25.3461 25.0397 25.5583 25.0393 25.7797L25.0378 37.5001H21.8753V25.7813C21.8753 25.3204 21.5612 24.9469 21.0987 24.9469H18.7503V21.9282H21.0987C21.2083 21.9284 21.3169 21.9069 21.4183 21.8651C21.5196 21.8233 21.6117 21.7619 21.6893 21.6844C21.8456 21.5266 21.8737 21.3141 21.8737 21.0922V17.7251C21.8737 14.2219 22.5815 12.5532 26.2987 12.5532H29.6315V15.5376H29.6331Z" fill="#91A6BF"/>
</g>
<defs>
<clipPath id="clip0">
<rect width="50" height="50" fill="white"/>
</clipPath>
</defs>
</svg>
