<svg width="49" height="49" viewBox="0 0 49 49" fill="none" xmlns="http://www.w3.org/2000/svg">
<path d="M35.171 1H13.601C6.641 1 1 6.642 1 13.601V35.171C1 42.131 6.642 47.772 13.602 47.772H35.17C42.13 47.772 47.772 42.13 47.772 35.17V13.601C47.772 6.641 42.13 1 35.17 1H35.171Z" fill="white"/>
<path d="M35.171 1H13.601C6.641 1 1 6.642 1 13.601V35.171C1 42.131 6.642 47.772 13.602 47.772H35.17C42.13 47.772 47.772 42.13 47.772 35.17V13.601C47.772 6.641 42.13 1 35.17 1H35.171Z" stroke="#91A6BF" stroke-width="2" stroke-miterlimit="10"/>
<path d="M24.3857 35.6759C30.621 35.6759 35.6757 30.6212 35.6757 24.3859C35.6757 18.1507 30.621 13.0959 24.3857 13.0959C18.1504 13.0959 13.0957 18.1507 13.0957 24.3859C13.0957 30.6212 18.1504 35.6759 24.3857 35.6759Z" stroke="#91A6BF" stroke-width="2" stroke-miterlimit="10"/>
<path d="M38.0948 13.0961C39.4308 13.0961 40.5138 12.013 40.5138 10.6771C40.5138 9.34108 39.4308 8.25806 38.0948 8.25806C36.7588 8.25806 35.6758 9.34108 35.6758 10.6771C35.6758 12.013 36.7588 13.0961 38.0948 13.0961Z" fill="#91A6BF"/>
</svg>
