<svg width="74" height="51" viewBox="0 0 74 51" fill="none" xmlns="http://www.w3.org/2000/svg">
<path d="M61.7815 0.830082C61.2479 0.298736 60.524 0.000154286 59.7692 0H14.2308C13.476 0.000154286 12.7521 0.298736 12.2185 0.830082L0.833838 12.1634C0.300087 12.6947 0.000154984 13.4153 0 14.1667V36.8333C0.000154984 37.5847 0.300087 38.3053 0.833838 38.8366L12.2185 50.1699C12.7521 50.7013 13.476 50.9998 14.2308 51H59.7692C60.524 50.9998 61.2479 50.7013 61.7815 50.1699L73.1662 38.8366C73.6999 38.3053 73.9998 37.5847 74 36.8333V14.1667C73.9998 13.4153 73.6999 12.6947 73.1662 12.1634L61.7815 0.830082ZM68.3077 35.6602L58.5907 45.3333H15.4093L5.69231 35.6602V15.3399L15.4093 5.66667H58.5907L68.3077 15.3399V35.6602Z" fill="#5582AC"/>
<path d="M20.415 18.994V20.254H16.275V23.8H20.271V25.06H16.275V31H14.943V18.994H20.415ZM35.2037 29.434C34.0037 30.622 32.5277 31.216 30.7757 31.216C29.0237 31.216 27.5417 30.622 26.3297 29.434C25.1297 28.246 24.5297 26.77 24.5297 25.006C24.5297 23.23 25.1357 21.754 26.3477 20.578C27.5597 19.39 29.0357 18.796 30.7757 18.796C32.5157 18.796 33.9917 19.39 35.2037 20.578C36.4157 21.754 37.0217 23.23 37.0217 25.006C37.0217 26.77 36.4157 28.246 35.2037 29.434ZM34.2317 21.496C33.2837 20.536 32.1317 20.056 30.7757 20.056C29.4197 20.056 28.2677 20.536 27.3197 21.496C26.3717 22.456 25.8977 23.626 25.8977 25.006C25.8977 26.386 26.3717 27.556 27.3197 28.516C28.2677 29.476 29.4197 29.956 30.7757 29.956C32.1317 29.956 33.2837 29.476 34.2317 28.516C35.1797 27.556 35.6537 26.386 35.6537 25.006C35.6537 23.626 35.1797 22.456 34.2317 21.496ZM41.8987 18.994H43.2307V29.74H46.5427V31H41.8987V18.994ZM50.7799 31V18.994H53.2279C55.0759 18.994 56.5519 19.462 57.6559 20.398C59.0239 21.538 59.7079 23.074 59.7079 25.006C59.7079 26.878 59.0059 28.414 57.6019 29.614C57.0259 30.106 56.4079 30.46 55.7479 30.676C55.0879 30.892 54.2419 31 53.2099 31H50.7799ZM52.1119 20.254V29.74H53.2819C54.7099 29.74 55.8559 29.38 56.7199 28.66C57.7999 27.748 58.3399 26.53 58.3399 25.006C58.3399 23.566 57.8779 22.414 56.9539 21.55C56.0299 20.686 54.8059 20.254 53.2819 20.254H52.1119Z" fill="black"/>
</svg>
