<svg width="58" height="48" viewBox="0 0 58 48" fill="none" xmlns="http://www.w3.org/2000/svg">
<path d="M56.0405 7.05357C55.5773 4.13674 52.8069 1.4895 49.8588 1.15169C35.7661 -0.384084 21.5483 -0.383897 7.45567 1.15225C4.51417 1.4895 1.74406 4.13647 1.27923 7.05967C-0.426689 18.2025 -0.426408 29.5401 1.28006 40.6829C1.74378 43.6 4.51417 46.247 7.46178 46.5848C14.5019 47.3524 21.5785 47.7369 28.6603 47.7363C35.7421 47.7367 42.8187 47.3521 49.8588 46.5842L49.8643 46.5836C52.8064 46.247 55.577 43.5997 56.0416 40.6762C57.7473 29.5335 57.747 18.1959 56.0405 7.05329V7.05357ZM53.8495 40.3348C53.5424 42.2651 51.565 44.1538 49.6161 44.379C35.6881 45.8972 21.6364 45.8974 7.70833 44.3796C5.75833 44.1561 3.77837 42.2662 3.47246 40.3412C1.80097 29.425 1.80059 18.318 3.47135 7.40163C3.77837 5.47021 5.75833 3.57984 7.70251 3.35713C21.6311 1.83887 35.6833 1.83869 49.6119 3.35658C51.5625 3.58011 53.5424 5.47021 53.8481 7.39526C55.5195 18.3115 55.5199 29.4185 53.8492 40.3348H53.8495ZM38.1507 22.9451L24.8382 14.0701C24.6711 13.9587 24.477 13.8947 24.2764 13.885C24.0758 13.8753 23.8764 13.9202 23.6993 14.015C23.5223 14.1097 23.3743 14.2507 23.2711 14.423C23.1679 14.5953 23.1134 14.7923 23.1134 14.9931V32.7431C23.1134 32.9439 23.1679 33.1409 23.2711 33.3132C23.3743 33.4854 23.5223 33.6264 23.6993 33.7212C23.8764 33.8159 24.0758 33.8608 24.2764 33.8511C24.477 33.8414 24.6711 33.7775 24.8382 33.6661L38.1507 24.7911C38.3026 24.6898 38.4272 24.5525 38.5134 24.3915C38.5995 24.2305 38.6446 24.0507 38.6446 23.8681C38.6446 23.6855 38.5995 23.5057 38.5134 23.3447C38.4272 23.1837 38.3026 23.0464 38.1507 22.9451ZM25.3321 30.6702V17.066L35.5356 23.8681L25.3321 30.6702Z" fill="#91A6BF"/>
</svg>
